<svg fill="none" height="24" viewBox="0 0 24 24" width="24" xmlns="http://www.w3.org/2000/svg"><path clip-rule="evenodd" d="m12 22c5.5228 0 10-4.4772 10-10 0-5.52285-4.4772-10-10-10-5.52285 0-10 4.47715-10 10 0 5.5228 4.47715 10 10 10zm9-10c0 .8675-.1227 1.7063-.3518 2.5h-4.29c.0926-.799.1418-1.6367.1418-2.5 0-.8632-.0492-1.7009-.1418-2.5h4.29c.2291.7937.3518 1.6325.3518 2.5zm-4.7833-3.5h4.0774c-1.0881-2.57534-3.3406-4.53866-6.0978-5.2301.9233 1.14954 1.6456 3.00146 2.0204 5.2301zm-6.41301-5.2301c-2.75714.69144-5.00968 2.65476-6.09778 5.2301h4.07741c.37476-2.22864 1.09706-4.08056 2.02037-5.2301zm-2.16192 6.2301h-4.29c-.22904.7937-.35177 1.6325-.35177 2.5s.12273 1.7063.35177 2.5h4.29c-.09255-.799-.14177-1.6367-.14177-2.5 0-.8632.04922-1.7009.14177-2.5zm.14155 6h-4.07741c1.0881 2.5753 3.34064 4.5387 6.09778 5.2301-.92331-1.1495-1.64561-3.0015-2.02037-5.2301zm6.41298 5.2301c2.7572-.6914 5.0097-2.6548 6.0978-5.2301h-4.0774c-.3748 2.2286-1.0971 4.0806-2.0204 5.2301zm1.3037-8.7301c0 .8703-.0523 1.7083-.1488 2.5h-6.70241c-.09651-.7917-.14879-1.6297-.14879-2.5s.05228-1.7083.14879-2.5h6.70241c.0965.7917.1488 1.6297.1488 2.5zm-.2982-3.5c-.2154-1.2107-.5373-2.2842-.9317-3.1607-.7862-1.74705-1.6661-2.3393-2.2701-2.3393s-1.4839.59225-2.27006 2.3393c-.39442.8765-.71635 1.95-.93177 3.1607zm-6.40363 7c.21543 1.2107.53735 2.2842.93177 3.1607.78616 1.7471 1.66606 2.3393 2.27006 2.3393s1.4839-.5922 2.2701-2.3393c.3944-.8765.7163-1.95.9317-3.1607z" fill="#000" fill-rule="evenodd"/></svg>